<?xml version="1.0" encoding="UTF-8" standalone="no"?><svg xmlns="http://www.w3.org/2000/svg" xmlns:xlink="http://www.w3.org/1999/xlink" fill="#000000" height="501.1" preserveAspectRatio="xMidYMid meet" version="1" viewBox="-1.8 -0.5 297.5 501.1" width="297.5" zoomAndPan="magnify"><g id="change1_1"><path d="M49,144.1c5.5-1.5,5.4-7.2,7.3-11.5c1.7-4.2,4.1-2.4,4.2-7.3c0.6-3.7,4.4-5.3,4.2-9.8 c0.6-5.3,10.6-6.4,8.3-14.2c4.2-2.8,8.9-8.7,10.3-13.5c-0.6-1.4-5.4-5.2-2-6.3c6,1.3,2.2-3.7,5.8-4.2c5.7,0.4,2.3-4.8,4.6-7.9 c2-3.2-3.7-1.5-4.1-3.6c0.5-6,6.5-1.9,9.7-3.9c4.2-3.7,3-10,5.9-13.1c-2.2,0.2-4.9,0.3-7.7-1.6c-1.9-0.6,1.9-2.3-0.6-2.3 c-1-4.1,3.6-5.4,5.1-3.4c-0.4,0.5,1.9,6.5,2.2,3.5c3.1-2.6,5.8-5.7,7.4-9.2c-1.2-3.6,3.6-1.2,4.1-4.3c-1.5-3.5-5.6-1.6-7.3-1.8 c0.2-2-1.1-4.6,2-5.6c2.2,1.7,3.1-0.3,4.7-1c0.2,1.4,4.8,0.7,1.7,3.6c-0.2,0.2,0.6,0.7,1.1,0.5c3.2-0.3,0.7-4.4,2.7-5.1 c3.6-0.9-0.1-3.3,0.2-5.3c-0.1-1.4,0.2-2.3,1.9-2.1c2.9-1.5-0.4-7.4,5.2-4.8c2,4.1-2.8,3.2-2.9,6.3c1.1,1.2,3.9,0,3.1,2.7 c-1.9-1.1-2-1-2.1,1c-3.6,2.3,3.6,3.3,2.1-1c4.3,2.5,7.2,1.5,12.5,3c2.3-2-3,1.1,0.2,1.2c1.9-0.8-2.6-3-3.2-3.7 c10.6-0.3-5.2-2,8.5-5.6c2.4,0.7-0.9,2.5,0.2,2.9c2.9-1.8,3.3,7.3,6.9,6.4c0.5,1.9-3.5,0.3-1.3,2c3,0.2-0.6,6.4,3.4,5.3 c2.2-0.5,2,1.7,2.6,3c4.7-2.1,6.5,3.6,7.2,7.1c4.6,3,3.7-3.3,6.5-1.5c7.9,1.9-6.6,4.9-3.6,11.8c2.9,1.5,5.7-4.4,6.1,3.5 c5.6,4.6-1.2,1.8-0.6,4.1c1.6-0.3,5,3.5,2.5,3.3c-0.4,0.1-1.2,0.1-0.5,0.8c5.2,0.8,0.1,0.9,1.1,2.2c3.8,3.2,1.3,7.7,8.8,7.9 c-0.3,1.1-5.6,0.7-1.1,1.6c2.8,0-1.4,2,0.7,3.1c3.2-0.6,2.9-1,1.9,1.9c1.8,0.3,3.7,0.3,1.7,1.9c0.6,1.2,0.7,3.2,2.1,3.5 c0.1,2.1,2.6,1.7,3.7,3.1c-0.7,1.9,2.3,3.3,2.6,5.3c-2.3,1.3,0.2,0.6,0.9-0.4c0.2-3.2,2.8-0.8,3.1,1.1c-2.6,0.2-1.5,4.4,1.5,2.4 c1.3,3.3,3.6,0.6,3,4.2c-0.5,1,0.5,1.4,0.9,0.5c0.6-4-7.9,3.1-0.9-0.5c5.2-0.8-0.8,6.4,4.6,5.3c0.8,1.8,1,7.3,4.5,4.7 c1.2-1.4-2.3-1.8,0.2-3.2c3.3-0.3-1.5,7.1,1.7,7.1c-2.2,4.6,2,0,3.2,3.8c2.4,0.2,1.2-4.7,3.4,1.2c-0.6,5,3-3.9,4.2,1.2 c0.5,2.1,2.4-3.5,2,0.1c1.3,4,1.7,1.9-0.6,4.7c3-0.5,0.3,4.8,3.6,2.9c1.5-1.8,1.1,2.5,3.4,1.4c1,0,1,0.8,0.9,1.4 c-0.9,4.1,3,1.7,4.5,3.6c0.5,0.5,1.1,1-0.2,1.2c-3.7,1.7-0.4,5.9,1.9,3.1c3.4-4.5,2.6-0.3,3.1,3.6c0.4-0.2-1-0.7-1,0.3 c-0.1,1.5,1.3,1.6,1-0.3c1.7-0.7,0.6,2.3,2.7,1.7c1.7,1-2,2.9,0.1,4.2c1,0.7,3.1,3.6,3.6,0.9c0.9-2.6,1,2.2,3,1.1 c1.6,0.1,1.2,0.7,0.3,1.3c-2.9,3.1,4.5,2.9-0.2,5.9c2.1,2.5,6.1,0.9,5.2,5.3c-2.7,1.4,1.7,0.5,1.1-1.3c2.5-2.4,5,3.9,0.1,4 c2.9,2.6,4.1-1.8,6.2-2.6c0.4,2.1-0.2,4-1.2,5.7c-6-1.4-1.1,2.9,2.2,2.6c1,3.2-0.3,7.4-1.8,8.6c0,1.6,2.5-1.4,1.8-2.4 c0.7-0.2,1.9,0.5,2.1-0.8c0.2-1.7-0.3-3.6,0.8-5.2c0.1-0.2-1.3-0.9,0-1.2c2.9-0.3,0.2,4.2,0.5,5.2c0,1.5,3.8,2.4,3.7,3.8 c-3.2,0.4-6-2-5.6,3.3c0.7,1.1,2.7,4.7,4.3,3.2c-1-0.4-0.4,0.8,0.2,0.9c-0.1-0.7-1.4-2.9,0.2-3c2.9,1,1.6,6.4-1.9,6.2 c-0.5-3.1-7.9,3.8-3.7-3.1c-1.3-2,0.3,3.8,1.6-0.1c0.6-1.6-4.6,1.6-4.2,2c0,1.5,2,2.8,1.6,4.3c-0.9,0.8-3.5-2.3-2.5,0.8 c2,0.7,7.3,1.4,3.1,3.5c-4,1.4,9.1,0.8,2.2,3.8c-4-1.8-6.1,2-6.6-3.9c-0.4-2.8-2.2,2.9-4,0.7c-1-1.6-2,1.1-0.5,1.4 c0.8,0.2,2,0,0.7,1.3c-2.1,1-1.5,3.6,0.7,4c2.2,5.1-2.8,1.8-5,5.7c1.5,3.5,2.1,6.5-3.3,3.7c-5-2.9-3.1-0.8,1-3.1c2-0.5,0-1.3-1.3-1 c0.5,0.1-0.3-1.7-0.7-0.6c2.5,4.2-4.8,0.2-6.1-1.2c-0.4,2.5-2.2,2.2-4.4,0.8c-4-0.7-0.8,2.3-1.1,4.1c-2.5,0.6-3.7-0.4-3.1-2.9 c2.6-4.7-0.6-2-1.8-4.2c1.8-1.4-1.9-1.9-1.3-0.2c0.7,1.1-2.5,3,0.7,3.4c-1.4,1.8-7.6,1.4-3.9-3.4c3.7,3.4,2.2-3.2-3.1-4.2 c0.2-2.4-0.5-1.6-1.8-1.3c-0.4-2.5-1.4-4.5-4.4-3.9c-1.4-2.7,1-4.3-1-6.3c-1.6-0.1-0.9-1.3-1-2.1c0.2-1.1,2-2.1-0.1-2.1 c-4.6,0.7,0.4-1.7-1.8-1.9c-3-0.1-2.2-1.8-2.3-3.3c2.3-3.7-7.1-2.9-7.3-8.8c-1.3-1.2-1,1.7-1,2.6c-2.8-0.7-0.7-6.6-4.4-4.2 c-3-2.1,3.5-5.8-2.4-5.2c-0.6-0.1-2.5-3.3-2.6-1c-4.3-2,3.9-4.4-1-4.2c-2-2.4-0.9-6-4.9-7.6c1.3-1.8,0.2-4.3-1.9-1.8 c-0.7-2.6-0.9-3.6-3.6-3.1c1.3-4.6-7-2.9-6.2-8.6c-2.4-11.9-8.4-0.9-10.4-6.6c3.8,0.1,5.1-4.6,1-4.7c0-4.1,0-4.1-3.1-4.2 c0.8-2.1-1.8-1.6-2.1-3.1c2.3,0.5,2.3-1.6,0-1c-0.2-4.1-0.5-8.3-5.1-9c3.3,9.6-1.8,19.1-1.1,32c-1.1,73.6-2.7,147.5,0.4,213.7 c3.4,0.8-1.3,3.2,2.7,5.1c-1,3.8,5.2,1.3,2.8,5.3c-2,1.2-1.2-1.9-2.5-1.6c-2.8,2.6,1.8,3,0.1,3.8c-5.6-0.2,1.7,3.4,2.1-0.8 c0.3-0.4,0.8,1,0.7,1.3c9.5,5.2-6.6,1.3-3.9,4.4c3.8-0.1,2.2,2.6,1.9,5c0.7,0.9,1.6,1.4-0.5,1.6c-2.5,1.6,1.4,5.2,2,1 c0.5,1.1,1.3,2.9-0.6,3.1c-1.7-0.6-2.6,0.8-1.5,2.1c3.1,1.4,5,3.6,0.7,4.5c4,1.1,4.7,0.9,2.9,5.9c-1.6,2.1,2.7,3.4-3.1,4.7 c12.1,3,5.5,4.9,4.1,12.8c0.5,2.2,2,1,3.2,2.3c-0.6,1.5,0.9,2,2,2.7c-1.4,1.1-3.9-0.4-4.9,1.8c-0.6,3,2,1.4,2.5-0.2 c2.7,1.9-4.3,7.5-1.3,7.2c0.8,0.1,2.6-0.5,0.9,1.3c-4,2.1,2.5,2.9-0.6,5.6c-5,1.6,1.4,5.4-1.5,7.9c-1,1-3.2,2.3,0.3,2.9 c0.7,1.1-1.6,1.6,1.2,3.3c1.6,2.6-3.5,2.6-3.3-0.2c-0.8,2.1-1.1,9.5-3.7,6.3c-0.2-2.9-5.3,2-3.7,2.9c1.7,0.8,5.6-0.4,4.5,1.9 c-5,1-5.9,2.9-8.2,7.2c-3.5-2.1-4.9,4.4-6.9-0.8c-1.8-2.4-1,1.7-1.8,2.2c-1.3-1.3-1-2.9-2.3-3.8c-1.7,1.2-1.4-0.7-1.4-2.3 c0-2.1-1.7,0.5-2.9,0c-4.2-1.3,2.1-3.2,2.7-3.7c-0.8-1.3-4.6-1.2-2.4,0.6c-3.5-3.8-5,4-6.9-0.6c-2.6-2.8-2.6-2.2-1.9-6.1 c-2.8-3-1.1,2.6-3.1,2.5c0.8-2.8-2.1-5-3-5.9c1.5-1.4,0.4-1.5-0.8-1.4c-5.1,1.2-6-2.1-0.5-2.7c-3.5-0.3-3.4-2.8-3.6-5.6 c1.2-1.7-0.6-5.8,3.1-3.5c1-2-1.9,0.5,0.2,1.2c-0.5-5.3-2.4-8.3-5.8-10.3c0.6-0.6,3.5-0.9,3.6-1c-0.9-0.4-0.4,0.8,0.2,0.9 c0.6-3.5-4.5-2.5-2-5.3c0-5.7,2.7-0.4,3.4-1.9c-2.8-0.6,1,2.4,0,0.4c-1.4-0.1-0.4-4.9-1-3.4c-0.3,2.6,2.2-0.9,0.4,0 c-3.3-0.2-5.3,0.6-2.5-2.1c-1.9-3.9-0.3-4.4-4.8-3.4c-1.6-7.3,9.7,3,4.3-5.9c-0.8-1.9-1.8,0-2.6,0c-0.1-2.6,2.6-3.2,4.1-4.9 c0.3-2.4-4.6-0.3-2.1-3.6c1.8-2.8-4.5-7-0.2-10.7c4.4-3.1-1.3-2.2,0.5-6.4c-0.1-0.5-0.8,0.9,0.2,0.5c0.4-0.3,0.8-1.1-0.2-0.5 c-5.6,2,0.5-5.5-1-6.8c-3.4-0.2,0.6-1.6-0.4-2.1c3-0.7-1.2-5.5,3-3.5c0.8-1.7-0.9-1.7-1.9-1.7c-0.7-1.7,0-7.9-3.1-7.3 c7.4-5.2,5.8,0.8,3.1-8.3c2.2,1.3,4.2,3.5,2.6-1c-3.2-0.1-5.3-1.3-4.7-4.6c-0.2-1,2.3-3.6,4.4-3.1c0.5,0.2-0.1-0.3-0.8-0.7 c-2-0.1,1.7,4.4,0.8,0.7c-2.4-1.3,1.8-2.4-1.5-2.8c-0.3,0-1.1-0.1-0.5-0.8c5-2.2-1.7-10.3,2.5-10.6c1.7,0.1,3.3-10.5,0.8-12.5 c-0.1-0.3-1.4-0.2-1.5,0.7c-0.3,3.3-1.5-0.8-2.1,0.3c3-8,4.9-1.4,5.3-6.6c-1.2-2.2,1.1-4.3-1-6.5c3.2-3.2-3.2-2.8,0-5.7 c2.1-0.9,3.9-1.7,3.1-4.9c0-2.2-0.9-1-1.6-0.4c-0.7-0.6-0.9-2.2,0.5-2.1c4.4-4.6-5.6,0.3-5.2-2.1c2.3-0.6,1.8-2.9,5.2-1.7 c1.8-0.6-3.1-0.6-0.3,0.6c2.4-2.9-3.3-3.5-2.8-6.2c0-0.7,0-1.4,0-2.1c6.7,2.3,0.3-6.1,0.1-8.9c0.5-0.8,0.8,0,1.1,0.2 c1.4,1.6,3.2-1.6,0.9-1.7c-1.7-1.7,0.8-6,0-9.4c2,0.5,2.5-1.2,1.9-2.7c-2.4-0.7,1.7,2.7-4,0.6c-0.5-1.7,1.1-1.5,1.5-2.1 c-1-0.4-0.4,0.8,0.2,0.9c-0.5-4.5,1.7-7.6-0.6-12.4c0.3,0,0.7,0,2.1,0.4c1.8-0.7-3.1-0.5-0.3,0.6c1.2-1.8-1.4-5.3-0.7-8.3 c4.5,0.6,0.5-4.1,2-5.9c-0.9-2-5.1-1-4.8-3.3c1.6-1.1,6.3-9.2,3.3-8.7c-0.4,0-0.5-0.5-0.2-0.7c3.5-2.7-1.6-10.2,1.5-11.7 c2.2-0.4,0.5-1,0.5-1.7c0.5-5.2-3.2-9.2-1.4-13.7c-2.7-2.2,5-0.7,1.6-3.5c-2.9-0.3,2-4.2-0.2-6.6c-0.6-1.8,1-3.5-0.1-5.3 c2.9-2.3-1.7-0.7-0.6-2.6c2.1-4.3-0.7-9.7,1.7-13.6c-2.3-15.5,2.3-35.5,2.1-54.3c2.1-12.4,0.7-18.5-3.2-3.2 c-8.6,8.8-16.7,22.6-22.8,34.4c-6.2,3.2-4.4,12-10.4,16.1c-4.5,12-14.5,24.8-18,37.8c-1.7,1.4-8.9,8.1-3.9,7.6 c-1.4,1.8-7.1,2.2-1.3,3.4c-1.3,2-5,0-3.9,4.1c-0.3,2.6,8.9,7.9,0.7,7.1c-2,2.2,3.3-0.8,0.3,3.1c-2.3,5-1.1-7-4.4-2.9 c-2.3,3.7-3.1,16.2-6.4,10.5c-1.9,0.8-2,3.2-3.4-0.2c-1.4,3.6-1.4,8.1-6.2,4.1c0.5,0.3,0.9-2-0.2-2.1c-1.7-0.5-2.1,2.4,0.2,2.1 c-0.5,2.1-5.3,0.7-2.9,4.4c4,2.7-3.1,5.8-3.9,2.7c0.4-4-1.2-5.7,2.7-9.2c-1.7-1-0.2,2.8,1.4-0.7c-0.3-0.1-0.5-0.3-1.4,0.7 c-1.5,2-3.5-1.4-4,1.8c0,0.3-0.7,0.2-0.7-0.2c-1.1-3.5,4-2.5-0.6-4.6c-0.1-0.1-0.5,0.6-0.6,1.1c1,4.5-6.1,0.1-3.4-1.2 c0.8-0.1,1.9-0.1,0.6-1.2c-2.2-3.6-3,4.5-4.2-0.3c-0.2-0.7-0.7,1,0.2,0.5c1.6-1.6-1.2,0.3-1.5,0c0-0.5-0.1-1.5,0-1.5 c3.4-0.6,0.9-4.4,3.5-5.7c1.5-2.3-1.8-0.4-2.5-0.1c-0.1-0.7,0.5-1.9-0.8-2.1c-3.1,4.2-3.4-2.4-4.5-6.6c-2-2.3,1.1-3.1,2.1-5.1 c0.4-2.5-1.4-8,2.1-5c13.1,1.4,3.8,0.3,7.3-5.2c0.8-0.6,3.3-4,2.1-4.6c-0.4,1.6,2-1,0.3,0c-3.8-1-2,9.5-4.5,2.6 c1.4-1.4-0.4-6.4,4.4-5.2C35.8,171.4,49.5,158.3,49,144.1z M145,25.6c0.3-1-1.8,0.1-0.6,0.4c-0.2,0.7,1.8-2.6,0.6-1.4 C144.9,26.6,147.1,22.6,145,25.6z M27.2,196.3c2.1,0.2,0.1-1.7-1.1-0.6c0,0.8,2.9,0.3,2,2.2c-2.2,0.1-2-0.1-2.1,2.8 c-0.9,1-4.1,2.7-0.5,3c0.7,0,1.7,0.1,1.5-0.8c-0.3-1.9,2.2-0.7,2.1-2.2c-0.1-1.2-0.2-2.3,1.7-2.4c1.4-1-2.7-0.4-0.7-1.9 c3.2,0.1,1.6-0.9-0.4-1.9C28.3,195.6,30.2,196.8,27.2,196.3z M159.4,39.1c-2,3.7,3.7,3.4,2.3-0.1C162.1,36.6,157,37.6,159.4,39.1z M32.4,205.1c-3.2-2.3-5.3,0.3-2.6,2.5C30.3,206.7,30.7,205.6,32.4,205.1z M136.5,23.4c-2.1-3.7-4.4,1.3-2.2,1.4 C134.7,23.5,136.4,24.9,136.5,23.4z M62.4,207.8c0.8-2.2-1.8-2.9-2-1.1C60.3,208.2,63,209.4,62.4,207.8z M166.9,406.9 c0.7-2.8-2-1.2-2.8-0.5C163.9,407.3,167.4,408.6,166.9,406.9z M118,360.1c1.1,0.5,2.9-0.9,0.9-1C117.7,358.6,115.8,360,118,360.1z M118.9,363.3c0.9,0.1,1.1-0.6,1-1.3C119.8,360.2,116.8,363.2,118.9,363.3z M119.9,395.7c0-1,0.2-1.7-0.5-2.2 C118.5,394.5,118.9,398,119.9,395.7z M52.1,208.3c-0.4,1.6,1.5,1.9,1,0C53.7,206.7,51.7,206.4,52.1,208.3z M240,206.9 c0-0.7-0.1-1.3-1.1-1.2C237.1,205.6,239.7,208.8,240,206.9z M23.9,205.7c1,0,1.7,0.2,2.2-0.5C25.1,204.3,21.6,204.6,23.9,205.7z M48.4,215c-0.5,0.8-2.2,1.9-0.5,2.1C49.3,217.3,49.2,215.8,48.4,215z M144,462.4c0.1-0.9-0.6-1.1-1.3-1 C140.9,461.5,143.8,464.5,144,462.4z M39.1,180.6c-0.5,0.8-2.2,1.9-0.5,2.1C39.9,182.9,39.8,181.4,39.1,180.6z M223.3,195.3 c1.2-0.1,1-1.2,0-1C222.1,194.3,222.2,195.4,223.3,195.3z M47.4,205.6c1.5-0.8-0.6-1-1.2-0.8C45,205.4,47.1,205.7,47.4,205.6z M50.1,214.8c-0.1,0.6,0.1,1,0.5,1.4C51.5,215.5,50.6,213.3,50.1,214.8z M125,429.7c-0.2-0.8-1.3-1-1.7-0.3 C123.3,430.2,124.6,430.4,125,429.7z M123.1,225.5c-1.1-0.2-1.2,1,0,1C124.1,226.8,124.3,225.6,123.1,225.5z M149.8,27.1 c-0.9,0.9-0.5,1.3-0.1,2.2C150.5,28.6,150.1,28,149.8,27.1z M55.9,221.2c0.7-0.4,0.5-1.8-0.3-1.7C54.9,219.9,55.1,221,55.9,221.2z M123.6,419.6c-0.5,0.3-0.2,0.6,0,1C124.1,420.3,123.8,420,123.6,419.6z M118.5,377.7c0.6-0.4,0.1-0.5-0.3-0.7 C117.6,377.3,118.1,377.5,118.5,377.7z M127.1,429.4c-0.4-0.6-0.5-0.1-0.7,0.3C126.7,430.3,126.9,429.8,127.1,429.4z M120.5,346.6 c-0.5,0.3-0.2,0.6,0,1C121,347.3,120.7,347,120.5,346.6z M123.8,444.5c0.6-0.4,0.1-0.5-0.3-0.7C122.8,444.1,123.4,444.3,123.8,444.5 z M122,280.3c-0.3-0.5-0.6-0.2-1,0C121.3,280.9,121.6,280.5,122,280.3z M54.1,211.6c-0.2-0.4-0.4-0.9-0.7-0.3 C53.5,211.7,53.7,212.2,54.1,211.6z M141,19.6c0.4,0.6,0.5,0.1,0.7-0.3C141.4,18.7,141.2,19.2,141,19.6z M55.4,217.5 c0.2,0.4,0.4,0.9,0.7,0.3C55.9,217.4,55.8,217,55.4,217.5z M170,58c-0.3-0.5-0.6-0.2-1,0C169.3,58.6,169.6,58.3,170,58z M48.6,219.1 c0.6-0.4,0.1-0.5-0.3-0.7C47.7,218.7,48.2,218.9,48.6,219.1z M172.1,462.1c0.1,0.7,0.1,1.4,1.4,0.3c1.1-1,0.7,1.6-0.4,1 c0.3-3.3-0.1,1.3,0.7,1.1c3,0.2-0.1,5.5-0.7,3.1c-0.8-0.4-1.4,2-2.4,0.3c-0.8,0.5-1.5,3-2.9,3.9c1.2-0.6,2,1.3,3,0.6 c4.3-3.7,0.3,8.4,4.3,3.6c0.8-1.6-2.2-3-0.6-4c1.6-0.7-0.8-3.5,2-3.4c0.8,0,1-1.2,0.6-1.5c-1.8-2.4-0.4-5.8-3-7.8 C174.2,461.6,168.9,459.1,172.1,462.1z M243.3,216.1c-2.4,0.1,4.1,6.2,6.5,2.3c4.8,4.7,9.3-4.1,1.6-2.1c-0.3,1.3-2.5,0.9-1.8,0.1 C255.6,214.2,245.3,211.7,243.3,216.1z M25,236c1.8,0.5,2-0.9,3.4-1.1C39.9,230,15.8,226.7,25,236z M280.4,198.7 c1.9,1.8,2.5-2.2,3.3-3.4C281.9,189.8,269.6,192.8,280.4,198.7z M256.3,221.2c-2.6,2,1.1,4.9,3.1,4.1 C263.7,220.4,260.3,211.7,256.3,221.2z M293.2,181.7c2.5-7.6-7.5-8-4.5-0.9C289.2,184.7,290.9,181.5,293.2,181.7z M128.3,6.4 c3.5-0.1,4.9,1.8,5.8-2.2C134.7-0.5,125.7,0.2,128.3,6.4z M119.9,5.4c-5.3,0.9,0.8,3.9-2.7,6.5C118.2,16.5,127.3,5.1,119.9,5.4z M132.5,487.4c5.9-1.1,5.2-0.2,3.2-3.7c0.3-0.9,1.7,0,1.9-1.1C135.9,476.6,129.8,485,132.5,487.4z M27.5,221.6 c-3-6.2-7.5,1.3-2.8,2.9C28.1,225.1,33.7,221.3,27.5,221.6z M142.6,485.5c-0.9,1-5.1,4.7-0.2,2c1.5,1.3-0.9,5.1,1.6,5.1 c2-0.4-0.1-1,0-1.5c5.8-2.3-1.9-2.5,1-3.7c1-0.1-1.2-2.8-0.2-5.9C143.8,480.7,141.7,484.1,142.6,485.5z M16.6,222.4 c4.1,0.8,5.1-6.4,0.7-6.1C16.3,217.9,12.8,221.8,16.6,222.4z M2.3,246.4c-4.1,0.1-2.1,5.7,0.8,6.2C6.5,251.9,5.5,246.8,2.3,246.4z M160.7,489.8c4.8,4,3.9-3.6-1.1-3c1.5-0.6,2.4-0.9,2-2.5c-0.7-0.4-2.3,1.9-1.8,0.3C161.3,480.9,153.7,485.4,160.7,489.8z M158.8,24.9c4.6,1.6,3-4.8-0.2-4.9C155.1,21,156.7,23.5,158.8,24.9z M146,488.5c12.8-4.6,7.9-0.2,1.9-5.9 C145.2,480.8,147.9,486.7,146,488.5z M30.7,248.4c-5.6-4.2-3.7,9.7,1.6,2.1C32.6,249.3,31.2,249.5,30.7,248.4z M16.7,248.5 c4-0.7,5-3.6,1-5.2C15.6,243.4,14.4,247.8,16.7,248.5z M145,0.1c-1.1,4.3,2.9,6.6,5.1,2.5C149,0.5,148-0.4,145,0.1z M103.3,31.4 c-0.6-1.3-1.5-5.5-3.9-3.9C95.2,29.5,103,35.1,103.3,31.4z M273.2,207.8c-3.2-1.5-4.6,4.1-1.3,4.2 C274.8,213.1,275.6,208.3,273.2,207.8z M119,459.3c-2.8,1.3-5.3,8.3-1.1,5.2C119.2,463.4,121.7,460.2,119,459.3z M275.3,235.3 c0.3,0.2,0.9,1,1,0.2C279.1,226.7,267,232.6,275.3,235.3z M106.4,342.4c1.3-0.6,3.4-4.7,1-5.3C104.6,335.7,104.8,343.1,106.4,342.4z M122.7,465.3c3.5-2.5,5.8,3.2,3.5-3.9C124.4,461.9,117.7,465.4,122.7,465.3z M121.8,474c3.1-0.2,6.2-0.8,1.2-1.5 C117.8,471.1,115.9,479,121.8,474z M45.1,240.1c-1-0.2-3.5,0.6-1.5,1c3.8,0.5-4.1,3.6,1.2,3.1C46.8,243.7,48.2,234.6,45.1,240.1z M123.8,477.8c-2.4,0.1-2.3,3.9-1,4.4C126.3,482.2,125.4,472,123.8,477.8z M130.4,478c-4.8-1.3-4.6,3.2-3.1,5.2 C128.8,482.3,128.8,479.7,130.4,478z M133.5,474.9c-0.2,0.7,1.2,2.7,2.3,1.4c1.3-1.1,0.2,2.2,1.9,1.7c1.8-2.8,1-2.4-1-3.9 C136,470.8,134.8,475.4,133.5,474.9z M115.8,269.1c-0.8-2.3-2.4,0.4-2.6,1.2C108.7,271.7,117.8,274.6,115.8,269.1z M168,477.5 c1.3-1.5,0.4-6.9-1.1-3.4C164.6,479.4,172.6,480.4,168,477.5z M174.7,455.1c-0.7,2.9,3.3,1.7,2.7-0.4 C175.1,451,171.7,452,174.7,455.1z M138.7,487.2c-0.9-2.4-1.6,1.6-3.4,1.3C133.3,490.5,142.1,490.8,138.7,487.2z M123.1,232.8 c-1.6,0.6-3.9-2.9-4.2,0.3C118.9,236.6,122.8,234.9,123.1,232.8z M109.7,294.4c-3.6-0.6-0.9,1.7-1.2,3.6 C109.8,299.5,111.9,294.7,109.7,294.4z M116.8,465.5c0,2.4-1.7-1.5-2.1,0.8C114.2,470.3,120.8,466.5,116.8,465.5z M47.6,234.7 c1.4-1.9-2-1.1-3.1-1.9C42,234.6,46.1,235.4,47.6,234.7z M250.4,143.1c-2.8-1.5-2.9,4.7-1.1,3.7C250.6,146,250.4,144.5,250.4,143.1z M115,367.5c-2.8-0.6,0.3,1.4-0.6,1.9C108.9,371.2,119.6,371.1,115,367.5z M189.5,83.4c-2.3,1.6,1.9,1.8,2.6,0.5 C194.3,82.4,190.1,82,189.5,83.4z M132.5,476c0.1-0.9-0.1-1.2-1-1C126.1,474.5,132.4,479.5,132.5,476z M265.5,214 c1.3-1.6-1.8-0.9-2.6-1C262.3,215,264.5,216,265.5,214z M122.4,484.5c-0.8,0.6,1.3,1.7,0.6,2.9C125.2,486.6,125.5,482.7,122.4,484.5 z M119.9,457.2c1.3-0.2,2.7,0.5,4-0.3C123.1,455.2,116.6,456.2,119.9,457.2z M134.5,490.6c-2.6-0.7-2,1.9,0.1,2.1 C135.9,492.8,136,490.3,134.5,490.6z M135.6,480.1c0.3-1.7-0.4-2.4-2.1-2.1C131.8,480.6,133.3,480.2,135.6,480.1z M164.8,397.7 c1.7-0.2,3.1,1.9,4-0.5C168.5,396.4,164.1,396,164.8,397.7z M131.4,499.2c0.5-1.4-1.9-1.9-2-0.5C128.9,500,131.3,500.6,131.4,499.2z M63.6,219.3c0.5-1.5-3.8-1.8-4.2,0C60.8,219.3,62.2,219.3,63.6,219.3z M63.1,220.3c-1.5-0.4-3.6,0.3-2.1,2 C61.3,221.2,64.3,221.6,63.1,220.3z M167.9,400.8c1.5,0.7,2.2,1.4,3-0.5C171,399.8,167.8,399.1,167.9,400.8z M181,64.9 c-0.7,0.7-2.6,1.8-1.2,2.9C180.9,67.5,182.1,66,181,64.9z M52.1,223.4c0.5,0.9-1.6,1.1-0.6,1.9C53.4,226.3,55.7,222.5,52.1,223.4z M219.1,191.1c-0.7,0.1-1.9-0.5-2.1,0.8C217.2,194.5,219.9,193.1,219.1,191.1z M190.6,157.7c2.4,0.2,1.1-2.9-0.8-2.1 C190,156.4,189.4,157.4,190.6,157.7z M178.9,473.9c1.9-0.4-1.9-1.9-2.5-0.6C175.9,476,177.6,473.6,178.9,473.9z M49,241.2 c-2.3-0.3-2.1,0.3-1,2.1C49.5,243.6,48.9,242.2,49,241.2z M117.4,249.5c0.9,0.2,0.8-2.7-0.1-2.9 C116.8,247.2,116.4,249.3,117.4,249.5z M37.8,240.2c-2.1-0.1-0.6,1.1-0.3,2.1C38.8,242.7,39.1,240.6,37.8,240.2z M211.8,108.7 c-1.9-1.1-2-1-2.1,1C210.5,109.5,211.7,110.2,211.8,108.7z M118.9,249c0.1,1.6,1.5-0.8,2-1.2C119.7,247,118.7,247.7,118.9,249z M124.1,476c-0.5-2-2.1-0.6-3.1-1C121.5,476.9,123.1,475.6,124.1,476z M214.7,185.5c0.2-1.2-2.4-0.9-2.7-0.3 C211.8,186.4,214.2,185.9,214.7,185.5z M45.9,238c-0.1-0.7,0.5-1.8-0.8-2.1C42.5,235.9,44.5,237.7,45.9,238z M118.9,258.7 c-0.6,1.3,2,1.9,1.9,0.6C120.4,258.6,119.2,257.2,118.9,258.7z M119.4,261c-0.4,0.8-2.1,1.9-0.5,2.1 C120.3,263.2,120.1,261.6,119.4,261z M116.8,265.2c-0.1,1.8,3-0.8,1.2-1.1C117.3,264.1,116.7,264.3,116.8,265.2z M122,274.6 c-1.7-0.3-2.4,0.4-2.1,2.1C121.1,276.4,121.8,275.7,122,274.6z M115.4,289.4c-1.2-0.2-0.9,2.4-0.3,2.7 C116.3,292.3,115.8,289.9,115.4,289.4z M113.9,365.7c0.1,0.2,0.3,0.6,0.4,0.7C118.2,367.1,116.8,364.2,113.9,365.7z M113.7,423.8 c0.1,1.3,1.1,1.3,1.7,0.8C116.1,423.8,113.6,421.6,113.7,423.8z M212.8,189.1c-0.7,1.2,1.8,1.5,1.9,0.4 C214.7,188.7,212.5,187.3,212.8,189.1z M120.5,189c-0.4,1-1,2.3,0,3.1C121.1,191,121.3,189.7,120.5,189z M92.8,36.7 c0.3-2.3-0.3-2.1-2.1-1C90.8,37.2,92,36.5,92.8,36.7z M85.5,57.5c0.1,1.3,1.1,1.3,1.7,0.8C87.9,57.5,85.4,55.4,85.5,57.5z M30.2,182.7c-0.2-0.8,0.5-2-1-2.1C28.1,182.6,28.2,182.7,30.2,182.7z M176.9,459.3c-1.2,1,1.2,1.6,1.4,0.4 C177.9,459,177.3,459.3,176.9,459.3z M122.1,182.3c0,0.5-0.3,1.1,0.3,1.3C123.7,183.6,123.1,181,122.1,182.3z M117.9,306.9 c0.5,0,1.5,0.1,1.9-0.3C120,305.3,117.5,305.8,117.9,306.9z M179.9,473.9c-0.9-0.5-0.7,1.9,0.1,1.9 C180.6,475.3,180.5,474.1,179.9,473.9z M114.7,363.3c0,2.3,1.5,0.1,1-1C115.1,362.2,114.7,362.5,114.7,363.3z M42.5,238 c0.7,0.1,1.4,0,1.3-1C42.7,236.8,40.5,237.2,42.5,238z M156.5,486.4c0-0.5,0.1-1.6-0.3-1.9C154.9,484.4,155.2,487,156.5,486.4z M43.7,228.2c-1-1.2-1.6,1.2-0.4,1.4C44,229.2,43.8,228.6,43.7,228.2z M23.9,218.2c-0.2-0.8,0.5-2-1-2.1 C23.1,216.9,22.4,218.1,23.9,218.2z M114.7,422.7c1.6-0.1,0.9-1.3,1-2.1C114.2,420.7,114.9,422,114.7,422.7z M55.7,223.5 c-0.8-0.6-0.7,1.9,0.2,1.9C56.3,225.1,56.4,223.9,55.7,223.5z M115.8,418.6c0.7,0,1.4,0,2.1,0C117.8,416.9,115.3,417.2,115.8,418.6z M179.4,65.4c-0.6-1.4-3.2,0.5-0.9,0.5C178.7,65.6,179.6,66.4,179.4,65.4z M149.6,489.6c-0.5,0-1.1-0.3-1.3,0.3 C148.3,491.2,150.9,490.6,149.6,489.6z M113.7,401.9c-1.2,0-1.1,1.2,0,1C115.1,403.3,115.1,401.4,113.7,401.9z M212.3,190 c-0.5,0.1-2.3,0.2-1.2,0.9C211.9,191.7,213.8,190,212.3,190z M167.9,400.8c-0.5,0.1-1.5,0.5-0.6,0.9 C167.6,401.7,168.1,401.3,167.9,400.8z M216.3,188.8c1.3,0,0.6-1.2-0.4-0.8C216.1,188.2,216.1,188.7,216.3,188.8z M165.3,389.4 c-1.2-0.5,0,1.6,0.5,0.6C165.6,389.8,165.5,389.5,165.3,389.4z M165.3,387.3c0.5-0.3,0.2-0.6,0-1 C164.8,386.5,165.1,386.8,165.3,387.3z M275.4,194.2c-0.1-0.3-0.2-0.8-0.4-0.8C273.8,193.4,274.4,194.6,275.4,194.2z M162.2,362.2 c0.2-0.4,0.5-0.7,0-1C161.9,361.6,161.7,361.9,162.2,362.2z M158.8,337.5c0.1,0.2,0.2,0.5,0.3,0.7 C159.8,337.9,159,336.8,158.8,337.5z M263.9,201.5c-0.7,0-1.1,0.3-1,1C263.6,202.6,264,202.2,263.9,201.5z M35.4,174.4 c0-0.7-0.3-1.1-1-1C34.4,174.1,34.7,174.4,35.4,174.4z M158.2,202.8c-0.2,0.1-0.5,0.2-0.7,0.3C157.8,203.8,159,203,158.2,202.8z M262.9,202.6c-0.7,0-1.1,0.3-1,1C262.6,203.6,262.9,203.3,262.9,202.6z M122.6,165c-0.5,0.3-0.2,0.6,0,1 C123.1,165.8,122.8,165.4,122.6,165z M118.4,470.7c-0.5,0.3-0.2,0.6,0,1C118.9,471.5,118.6,471.2,118.4,470.7z M178,470.9 c-0.2,0.1-0.5,0.2-0.7,0.3C177.6,472,178.8,471.2,178,470.9z M119.9,276.7c-0.3,0.1-0.8,0.2-0.8,0.4 C119.1,278.3,120.3,277.7,119.9,276.7z M113.2,274.6c0.2-0.4,0.5-0.7,0-1C112.9,273.9,112.7,274.3,113.2,274.6z M187.8,152.5 c0-0.7-0.3-1.1-1-1C186.7,152.2,187.1,152.5,187.8,152.5z M119.9,255.8c-0.5,0.1-1.5,0.5-0.6,0.9 C119.6,256.7,120.1,256.2,119.9,255.8z M157,253.7c-0.2,0.4-0.5,0.7,0,1C157.3,254.3,157.5,254,157,253.7z M125.2,475.5 c-0.5,1.2,1.6,0,0.6-0.5C125.6,475.2,125.3,475.3,125.2,475.5z M170.6,476c0.2-0.4,0.5-0.7,0-1C170.3,475.3,170.1,475.7,170.6,476z M118.9,477.5c-0.4-0.2-0.7-0.5-1,0C118.3,477.8,118.6,478,118.9,477.5z M118.2,250.4c1.3,0,0.6-1.2-0.4-0.8 C118,249.8,118,250.3,118.2,250.4z M121,242.2c-0.1-0.5-0.5-1.5-0.9-0.6C120.1,241.9,120.6,242.4,121,242.2z M34.9,240.1 c-0.2,0.4-0.5,0.7,0,1C35.2,240.8,35.4,240.4,34.9,240.1z M120.5,238c-0.2,0.4-0.5,0.7,0,1C120.7,238.7,121,238.3,120.5,238z M41.7,237c-0.1-0.5-0.5-1.5-0.9-0.6C40.8,236.7,41.3,237.1,41.7,237z M120,482.8c-0.5,1.2,1.6,0,0.6-0.5 C120.4,482.5,120.1,482.6,120,482.8z M203.4,96.7c-0.4-0.2-0.7-0.5-1,0C202.8,96.9,203.1,97.2,203.4,96.7z M118.9,484.3 c0.7,0,1.1-0.3,1-1C119.2,483.2,118.9,483.6,118.9,484.3z M165.9,485.4c-0.7,0-1.1,0.3-1,1C165.5,486.4,165.9,486.1,165.9,485.4z M158,222.4c-0.2,0.4-0.5,0.7,0,1C158.3,223,158.5,222.7,158,222.4z M163.8,487.4c0.7,0,1.1-0.3,1-1 C163.9,486.2,163.6,486.5,163.8,487.4z M57.8,222.4c-1.2-0.5,0,1.6,0.5,0.6C58.1,222.8,58,222.5,57.8,222.4z M150.7,487.5 c-1.2-0.5,0,1.6,0.5,0.6C151,487.8,150.9,487.6,150.7,487.5z M131.8,489.3c1.3,0,0.6-1.2-0.4-0.8 C131.5,488.8,131.6,489.3,131.8,489.3z M248.3,220.8c0.3,0.5,0.6,0.2,1,0C249,220.3,248.7,220.6,248.3,220.8z M121,250.6 c-0.5,0.1-1.5,0.5-0.6,0.9C120.7,251.5,121.1,251,121,250.6z M161.7,465.5c0.8,1.3-2.1,2.8-0.2,3.1c3.7,0.8-0.9,5.7-1.9,2.1 c0.1-2.2-8.3,2.9-3.2,2.1c1.8-0.2,2.3,0,1.2,1.9c-0.6,6,3.3-1.8,6.4-1c2.2-0.9-0.1-4.2-0.3-5.4C167.3,466.8,164.4,465.9,161.7,465.5 z M171.1,437.8c-0.1,5.3,7.7-5.2,1.8-3.6C170.1,433.8,171.3,436.4,171.1,437.8z M170,461.4c-1.6-2.4,4.5-4.2,0.8-5.2 c-2.9-0.2-3-0.1-2.2,3.3C166.8,461.5,166.4,461.3,170,461.4z M142.4,466.6c-1.9,1.2-2.9,2.4-5.6,2.5 C138.9,471.1,145.1,470.1,142.4,466.6z M160.4,477.4c-0.8-1-2.9,3.1-2.5,3.7C162.1,483.7,161.8,479.5,160.4,477.4z M143.7,477 c4.5-1.2-2.7-4-2.9-0.8C140.7,479.1,142.7,478,143.7,477z M170.6,421.8c-2,3.3,7,0.4,3.9-1.1C171.3,418.5,173.3,421.4,170.6,421.8z M126.2,461.4c3-0.8,4.2-3,2.1-5.2C127.7,456.8,126.4,459.9,126.2,461.4z M156,466.6c-1.8,1.3,0.7,2.7,2,2 C159.6,467.6,157.7,465.8,156,466.6z M173.2,414.4c-1.3,0.1-0.7-1.4-2.1-1C168.7,415.9,173.6,418.4,173.2,414.4z M146.9,473.3 c-0.4-1.6-2.2-1.7-4-0.4C144.3,472.2,146.2,475.3,146.9,473.3z M162.3,463.3c1.3-0.9-2-1.5-1.7,0 C160.6,466.4,161.4,465.3,162.3,463.3z M163.8,465.5c0.8-0.1,3.9,0.6,2.6-1C165.2,462.5,164.4,464,163.8,465.5z M177.3,421.7 c-0.3,0.1-1-0.5-1,0.5C175.8,425.7,180.6,422.3,177.3,421.7z M167.9,465.5c1,0.1,1.4-1.1,2.6-1.2C171.9,463,166.6,462.8,167.9,465.5 z M151.8,481.3c-0.8,0-1.1,2.7-0.1,2.9C152.4,483.8,152.7,481.6,151.8,481.3z M164.3,483.3c0.4-0.8,2.1-1.9,0.5-2.1 C163.4,481.1,163.7,482.6,164.3,483.3z M139,471.8c-2.1-0.1-0.6,1.1-0.3,2.1C140,474.4,140.3,472.2,139,471.8z M154.4,469.2 c-1-0.4-2.3-1-3.1,0C152.3,469.8,153.7,470,154.4,469.2z M173.1,453c0.1-1-0.8-1.4-1.3-1.8C170.1,451.2,171.6,453.7,173.1,453z M134,463.5c-0.9,0.9-2.2,1.7-0.3,2C134.9,465.5,134.7,464,134,463.5z M132.5,464c-0.1-0.5-0.2-2.3-0.9-1.2 C130.8,463.6,132.6,465.5,132.5,464z M167.9,413.4c0.7,0,1.1-0.3,1-1C168.3,412.3,167.9,412.6,167.9,413.4z M165.3,452 c-0.5,0.3-0.2,0.6,0,1C165.8,452.7,165.6,452.4,165.3,452z M166.9,461.4c-0.5,0.1-1.5,0.5-0.6,0.9 C166.6,462.2,167,461.8,166.9,461.4z M159.6,462.9c-0.3-0.5-0.6-0.2-1,0C158.9,463.4,159.2,463.2,159.6,462.9z M164.8,463.4 c-0.1-0.5-0.5-1.5-0.9-0.6C163.9,463.1,164.4,463.6,164.8,463.4z M135.6,464c0.4,0.2,0.7,0.5,1,0C136.2,463.7,135.9,463.5,135.6,464 z M130.9,466.6c-0.5,0.3-0.2,0.6,0,1C131.4,467.3,131.2,467,130.9,466.6z M135.1,466.6c-0.5,0.3-0.2,0.6,0,1 C135.6,467.3,135.3,467,135.1,466.6z M144.5,469.7c-0.2,0.4-0.5,0.7,0,1C144.7,470.3,145,470,144.5,469.7z M166.9,479.1 c-0.5,0.1-1.5,0.5-0.6,0.9C166.6,480,167,479.5,166.9,479.1z M158.6,483.3c-0.1-0.5-0.5-1.5-0.9-0.6 C157.7,482.9,158.1,483.4,158.6,483.3z M162.7,485.4c0,0.7,0.3,1.1,1,1C163.8,485.7,163.5,485.3,162.7,485.4z M116.8,429.8 c0-1-1.5-0.9-2-0.8c-0.1,1.1,2.4,2.5,0.1,3.1C112.2,433.8,118.6,433.9,116.8,429.8z M114.9,437c0.3,0.4,1.9,0.7,1.7-0.3 C116.3,436.3,114.7,436,114.9,437z M117.9,432.9c0,0.4,0.3,0.9,0.5,1.3C119.4,433.4,118.4,431.1,117.9,432.9z M114.2,434.2 c-0.2,0.4-0.5,0.7,0,1C114.5,434.8,114.7,434.5,114.2,434.2z M117.3,443.6c-0.5,0.3-0.2,0.6,0,1C117.8,444.4,117.6,444,117.3,443.6z M126.2,455.1c-0.5,0.1-1.5,0.5-0.6,0.9C125.9,456,126.3,455.5,126.2,455.1z M96.2,51c2.6,2.4-3.6,0.1-2.3,2.9 c0.6,1.1,5.3-0.5,5.1-1.7C99.1,50.9,95.8,49.2,96.2,51z M151.3,22.1c-0.7,1.2,1.8,1.5,1.9,0.4C153.1,21.7,151,20.3,151.3,22.1z M129.4,15.3c-0.5,1.2,1.6,0,0.6-0.5C129.7,15,129.5,15.1,129.4,15.3z M129.3,15.8c-0.5,0.1-1.5,0.5-0.6,0.9 C129,16.7,129.5,16.2,129.3,15.8z M236.8,131.1c0.8,0.4,1.9,2.1,2.1,0.5C239,130.2,237.5,130.5,236.8,131.1z M269.2,193.2 c1.6-0.4,2.3-1.5,2.1-3.1C268.7,189.5,269.1,191.2,269.2,193.2z M267.7,168.3c-0.8,0-1.1,2.7-0.1,2.9 C268.2,170.8,268.6,168.6,267.7,168.3z M247.3,213c0.6-2.4-1.5-2.1-3.1-3.1C244.3,212.2,244.9,212.8,247.3,213z M240.8,210.9 c-1.8,0.2,1.2,3.2,1.3,1C242.1,211,241.4,210.9,240.8,210.9z M239.4,213c-0.9-0.2-0.8,2.7,0.1,2.9C240,215.1,240.2,213.2,239.4,213z M226.4,201.5c-0.5,0.1-1.5,0.5-0.6,0.9C226.1,202.4,226.5,201.9,226.4,201.5z M228.7,204c0,1.3,1.2,0.6,0.8-0.4 C229.2,203.7,228.7,203.8,228.7,204z M229.5,205.7c0.3-0.1,0.8-0.2,0.8-0.4C230.3,204.1,229.2,204.7,229.5,205.7z M226.9,209.9 c0.5-0.3,0.2-0.6,0-1C226.4,209.1,226.6,209.5,226.9,209.9z M67.8,204.7c0.4-0.1,1-0.1,0.8-0.7C65.5,201.9,64.1,207.2,67.8,204.7z M68.8,195.9c-0.5,1.2,1.6,0,0.6-0.5C69.2,195.5,68.9,195.6,68.8,195.9z M65.7,203.6c-0.1-0.5-0.5-1.5-0.9-0.6 C64.8,203.3,65.3,203.7,65.7,203.6z M118.2,323.4c1.3,0,0.6-1.2-0.4-0.8C118,322.9,118,323.4,118.2,323.4z M119.9,322.6 c0-0.7-0.3-1.1-1-1C118.8,322.5,119,322.7,119.9,322.6z M117.9,317.9c0.4,0.2,0.7,0.5,1,0C118.5,317.6,118.2,317.4,117.9,317.9z M28.1,190.6c0.1,1.6,1.5-0.8,2-1.2C28.9,188.5,27.9,189.3,28.1,190.6z M25.7,214.2c2.6,2.1,0.9-2.9-0.7-2.2 C25,212.8,24.8,213.7,25.7,214.2z M124.6,20c-1.2-0.5,0,1.6,0.5,0.6C124.9,20.4,124.8,20.1,124.6,20z M138.7,482.2 c-0.1,3,4.5,0.9,2.3,0C140,482.4,138.8,480.2,138.7,482.2z M138.7,478.1c-1.2-0.7-1.5,1.8-0.4,1.9 C139.1,479.9,140.5,477.8,138.7,478.1z M173.9,465.8c-0.8-0.7-4.1,0.2-2,0.8C173.3,467.2,175.2,468.4,173.9,465.8z" fill="#ffffff"/></g></svg>