<?xml version="1.0" encoding="UTF-8" standalone="no"?><svg xmlns="http://www.w3.org/2000/svg" xmlns:xlink="http://www.w3.org/1999/xlink" fill="#000000" height="1585.3" preserveAspectRatio="xMidYMid meet" version="1" viewBox="464.0 404.1 2577.8 1585.3" width="2577.8" zoomAndPan="magnify"><g fill="#edbf5c" id="change1_1"><path d="M2998.9,640.1c-7.7-23.9-16.1-45.2-25.7-65.2c-11.3-23.5-23.5-43.7-37.4-61.9c-7.9-10.2-16.3-19.6-25-28.1 c-9.3-9-19.5-17.1-30.3-24.2l0,0c-21-13.8-42.6-25.1-64.2-33.7l-8.6-3.4l-13.1-4.5l-4.4-1.3c-0.9-0.3-1.9-0.5-2.8-0.8 c-2-0.6-4-1.2-6.1-1.8c-12-3.2-24.2-5.6-36.4-7.4c-11.1-1.6-22.9-2.6-36.2-3.1l-8.6-0.3l-8.9-0.2c-6.3-0.1-12.1,0.1-17.9,0.3 c-12.7,0.4-24.8,1.1-33.9,1.6c-10.5,0.6-21.4,1.3-33.4,2.1c-47.7,3.3-93.9,7.1-132.8,10.4c-43.5,3.7-88,7.7-132.3,11.9 c-88.3,8.3-177.2,17.2-264.3,26.4c-93,9.8-179.3,19.2-263.9,28.9c-195.5,22.4-367.9,43.8-527.1,65.6 c-98.1,13.4-184.1,25.9-263,38.3c-46.9,7.3-89.8,14.4-131.3,21.7C841,620.2,799.4,628,760,636.2c-23.7,4.9-45.2,9.7-65.6,14.6 c-19.4,4.7-42.4,10.5-65.8,17.8c-9,2.9-21,6.8-33.5,12.1c-1,0.4-2,0.8-3,1.3c-0.5,0.2-0.9,0.4-1.4,0.6c-0.5,0.2-0.9,0.4-1.3,0.6 c-1,0.4-2,0.9-3.1,1.4l-4.5,2.2c-1.2,0.6-2.4,1.3-3.6,2l-2.2,1.2l-3.6,2.3c-1.4,0.9-2.3,1.5-3.2,2.1l-4.6,3.3 c-0.4,0.3-0.8,0.6-1.2,0.8c-0.9,0.6-1.7,1.3-2.6,1.9c-5.4,4.1-10.5,8.4-15.1,12.9c-2.1,2-4.1,4.1-6,6.2l-1.1,1.2l-1.2,1.3 c-1.8,2.1-3.6,4.2-5.2,6.4c-3.9,5-7.3,10.1-11.1,16.2l-1.1,2c-1.2,2-2.4,4.1-3.6,6.2c-0.5,0.9-0.9,1.7-1.4,2.6 c-1,1.8-2,3.7-2.9,5.6l-1.2,2.6c-0.9,1.9-1.8,3.8-2.7,5.7l-3.7,8.2l-4.2,10.2c-0.2,0.5-0.4,1-0.6,1.5l-2,5.3 c-3.6,10.4-6.6,21.1-9.7,34.9c-4.5,20.1-8.1,41.7-11.4,67.8c-5.1,40.7-8.4,83.5-10.5,134.4c-1.7,43.9-2.1,89-1.1,134.2 c1.2,48.3,3.8,92.2,7.9,134.3c2.4,23.8,5.1,45.8,8.4,67.2c1.7,10.9,3.7,22.3,5.9,33.6c2.4,12.1,4.8,23.1,7.5,33.6 c3,12.1,6.2,23.1,9.7,33.7c4.3,12.9,8.5,23.6,13.4,33.7c0.4,0.8,0.8,1.6,1.2,2.4c1,2,2,4,3.1,6.1l2.3,4.1c0.5,1,1.1,1.9,1.7,2.8 c0.3,0.5,0.6,0.9,0.9,1.4c0.3,0.4,0.6,0.9,0.8,1.3c0.6,0.9,1.2,1.9,1.8,2.8l5.4,7.9l2.9,3.8c7.7,10,16.5,19.3,26.2,27.8 c5.9,5,10.5,8.6,15,11.7c5.6,3.9,10.9,7.2,16.2,10.2c1,0.5,1.9,1.1,2.9,1.6l1.4,0.7c1.4,0.7,2.9,1.5,4.4,2.2 c1.7,0.8,3.1,1.5,4.6,2.1l12.9,5.2c1.9,0.7,3.8,1.3,5.6,1.9c0.9,0.3,1.9,0.6,2.9,1l4.9,1.6c1.2,0.4,2.4,0.8,3.6,1.1l14.7,4.3 l10.4,2.7c1,0.2,1.9,0.5,2.9,0.7c1.8,0.5,3.7,0.9,5.5,1.4l10.6,2.4c4.7,1.1,9.6,2.2,14.3,3.1c46.8,9.8,93.3,16.6,132.7,22 c40.3,5.4,83.7,10.4,132.5,15.4c41.1,4.2,84.5,8.1,132.6,12.1c151.3,12.3,314.8,22.2,513.4,31.2c2.9,9.3,5.2,18.5,6.9,27.7 c0.3,1.2,0.4,2.4,0.6,3.7c0.1,0.6,0.2,1.1,0.2,1.7c0.1,0.7,0.2,1.4,0.3,2c0.2,1.2,0.4,2.3,0.5,3.4c0.1,1.1,0.2,2.1,0.3,3.2 c0.3,2.5,0.6,5.2,0.7,7.8c0.5,6.5,0.6,13.4,0.2,21.7l-0.3,5.4l-0.6,5.4c0,0.3-0.1,0.7-0.1,1c-0.1,0.6-0.1,1.1-0.2,1.6l-0.4,2.7 c-0.1,0.7-0.2,1.4-0.3,2c-0.2,1.1-0.3,2.2-0.5,3.4c-1.1,6.4-2.7,13.3-5,21.2c-1.8,6.3-4.3,13-7.5,20.6c-2.9,6.8-6.2,13.5-9.7,19.8 c-7.2,12.8-15.7,25.2-25.4,36.9c-2.6,3.2-5.1,6-7.4,8.6l-2.2,2.5l-0.1,0.1c-1.2,1.4-2.4,2.8-3.5,4.4c-2.1,2.8-4,6.3-5.8,10.3 c-3.2,7.5-4.6,15.7-4.1,23.6c0.1,1.8,0.3,3.6,0.5,5.3l0.2,1c0.3,1.8,0.7,3.6,1.2,5.4c1,3.6,2.4,7.2,4.3,10.8 c3.6,6.9,8.5,12.9,14.7,17.8c3.1,2.5,6.5,4.6,10.1,6.3c4.1,1.9,7.8,3.2,11.3,3.9c3.8,0.9,7.8,1.3,11.8,1.3c3.8,0,7.6-0.4,11.4-1.2 l0.7-0.1c0.2,0,0.3-0.1,0.4-0.1l12.3-2.9c16.4-4.2,33.3-9.8,50.2-16.5c30.5-12.1,61.5-28.3,92.3-48.2c14.9-9.7,29.1-19.7,42.3-29.9 c13.5-10.4,26.8-21.5,39.6-33.1c12.2-10.9,24.2-22.7,36.9-36.1c12.6-13.3,23.7-26,34-38.9c11.7-14.6,21.8-28.1,30.9-41.4 c6.6-9.7,13-19.6,19.1-29.6c83.9,2.4,167,4.4,247.3,5.7c102.2,1.7,185.9,2.4,263.6,2.1c53.1-0.2,93.9-0.7,132.2-1.7 c7.8-0.2,15.8-0.5,23.5-0.7c3.2-0.1,6.5-0.2,9.7-0.3l5.3-0.2c1.2-0.1,2.5-0.1,3.6-0.2c3.2-0.2,6.4-0.5,9-0.7 c5.2-0.5,10.8-1.1,17.7-2.1c23.4-3.3,46.5-8.4,68.8-15.2c24.9-7.7,46.7-16.9,66.4-28.1c11.3-6.4,21.8-13.5,31.2-21 c0.6-0.5,1.2-1,1.8-1.5c1.8-1.5,3.7-3,5.5-4.7l1-0.9c2-1.8,4.1-3.7,6.1-5.7l3.5-3.4c0.8-0.8,1.6-1.6,2.3-2.4 c0.4-0.4,0.7-0.8,1.1-1.2l3.3-3.6c0.7-0.8,1.4-1.6,2-2.4l1-1.1c7.5-8.8,14.7-18.2,21.8-28.7c6.4-9.3,12.6-19.4,18.7-30 c10.8-18.9,20.8-39.2,30.6-62.1c16.6-38.8,30.9-80.9,43.7-128.5c11.2-41.6,20.5-84.6,28.5-131.4c7.3-43.2,13.1-87.9,17-132.9 c3.9-44.9,6.1-89.9,6.4-133.9c0.3-46.1-1.4-91.3-5.1-134.3c-4.2-48.4-10.7-92.3-19.8-134.1C3011.5,682.7,3005.6,661,2998.9,640.1z M2978.3,974.6c-0.4,85.5-7.7,171.9-21.7,256.9c-7.3,44.2-16.3,86.5-26.7,125.7c-12.1,45.4-25.2,84.8-40.3,120.6 c-8.7,20.7-17.6,39.1-27.2,56c-5.2,9.2-10.5,17.9-15.9,25.9c-5.8,8.6-11.8,16.6-17.8,23.7l-2.3,2.7l-2.2,2.4 c-0.3,0.3-0.6,0.6-0.9,1c-0.5,0.5-0.9,1-1.3,1.4l-2.5,2.4c-1.2,1.2-2.4,2.3-3.8,3.5l-1.2,1c-1.1,1-2.3,2-3.5,3 c-0.6,0.5-1.1,0.9-1.6,1.3c-6.9,5.6-14.7,10.9-23.3,15.8c-15.7,9-34,16.8-54.4,23.2c-19.1,6-39.1,10.5-59.4,13.5 c-5.9,0.8-10.6,1.4-15,1.9c-2.4,0.2-4.9,0.5-7.4,0.6c-0.9,0.1-1.7,0.1-2.6,0.2l-4.9,0.2c-3.2,0.1-6.5,0.3-9.7,0.4 c-7.5,0.3-15.2,0.6-22.8,0.9c-37.8,1.3-78.2,2-130.8,2.6c-77.3,0.7-160.7,0.6-262.5-0.4c-85.2-0.9-173.5-2.4-262.6-4.4l-0.3,0 c-10-0.2-19.3,5.1-24.2,13.9c-30.5,54.3-70.1,103.9-117.8,147.7c-11.7,10.7-23.9,21-36.2,30.7c-11.9,9.3-24.9,18.6-38.5,27.5 c-27.8,18.1-55.7,32.9-82.9,43.9c-14.8,6-29.6,10.9-43.8,14.7l-10.8,2.6c-0.1,0-0.3,0-0.4,0.1l0,0c-0.1,0-0.2,0-0.3,0 c-0.1,0-0.2,0-0.3,0c0,0-0.1,0-0.1,0l-0.1-0.1l-0.3,0c-0.1,0-0.2-0.1-0.2-0.1c-0.1-0.1-0.3-0.2-0.4-0.2c-0.4-0.3-0.8-0.8-1-1.2 c-0.2-0.4-0.2-0.5-0.3-0.6l-0.1-0.3l0,0c0,0,0-0.1,0-0.1c0,0,0-0.1,0-0.1l0-0.2c0-0.1,0-0.2,0.1-0.5c0-0.1,0.1-0.2,0.1-0.2 c0,0,0-0.1,0-0.1l0.2-0.2l0-0.1c0.1-0.1,0.2-0.3,0.3-0.4l1.7-1.9c2.8-3.1,5.7-6.5,8.7-10.2c11.6-14.1,21.9-29.2,30.5-44.8 c4.4-7.9,8.4-16.2,12-24.7c3.9-9.4,7-17.9,9.3-26c2.8-9.8,4.9-18.7,6.2-27c0.3-1.5,0.5-3.1,0.7-4.6c0.1-0.8,0.2-1.6,0.3-2.3 l0.5-3.4c0.1-0.8,0.2-1.5,0.3-2.3c0-0.4,0.1-0.8,0.1-1.2l0.2-2.2c0.2-1.6,0.3-3.1,0.5-4.8l0.4-6.9c0.4-10.2,0.3-19.3-0.3-27.7 c-0.2-3.6-0.6-7.1-1-10.5c-0.1-1.1-0.2-2.1-0.4-3.2c-0.2-1.5-0.4-3.1-0.6-4.5c-0.1-0.8-0.2-1.5-0.4-2.3c-0.1-0.6-0.2-1.2-0.3-1.9 c-0.2-1.6-0.5-3.3-0.8-4.9c-3.2-17.3-8.2-34.9-14.9-52.1l-0.1-0.2c-3.6-9.3-12.4-15.6-22.4-16c-97-4-183.5-8.1-264.6-12.8 c-94.3-5.3-180.6-11.2-264-18c-106.3-8.7-187.3-17.1-262.5-27.2c-38.5-5.2-83.9-11.9-129-21.4c-4.5-0.9-8.9-1.9-13.3-2.9l-10.2-2.4 c-1.6-0.4-3.3-0.8-4.9-1.3c-0.9-0.2-1.9-0.5-2.8-0.7l-9.6-2.5l-13.2-3.9c-1-0.3-1.9-0.6-2.9-0.9l-4.2-1.4c-0.9-0.3-1.8-0.6-2.7-0.9 c-1.5-0.5-3-1-4.4-1.5l-10.2-4.1c-1-0.4-2-0.9-3-1.4c-0.9-0.4-1.7-0.9-2.6-1.3l-0.4-0.2c-0.4-0.2-0.8-0.4-1.2-0.7 c-0.6-0.3-1.2-0.7-1.8-1c-7.9-4.4-15.6-9.8-22.9-16.1c-7.1-6.2-13.6-13.1-19.2-20.4l-2.1-2.8l-4-5.8c-0.4-0.6-0.7-1.2-1.1-1.8 c-0.2-0.4-0.5-0.8-0.7-1.1c-0.2-0.4-0.5-0.8-0.7-1.1c-0.4-0.6-0.7-1.2-1.1-1.8l-1.7-3.2c-0.8-1.3-1.4-2.7-2.2-4.2 c-0.3-0.7-0.7-1.4-1-2.1c-3.9-8.1-7.4-17.3-11-27.9c-3-9.2-5.8-19-8.6-30c-2.4-9.7-4.6-19.9-6.8-31.1c-2-10.8-3.9-21.4-5.5-31.7 c-3.1-20.2-5.7-41.9-7.9-64.4c-3.9-41.1-6.3-83.8-7.2-130.5c-0.8-44.1-0.3-88.2,1.6-131c0.9-21.8,2.3-43.7,4-65.2 c1-12.6,2-22.9,3-32.4c1.2-11.4,2.4-21.9,3.8-32.2c3.2-24.1,6.7-44.7,10.9-62.8c2.6-11.3,5.3-20.8,8.2-28.9l1.5-3.9 c0.1-0.3,0.2-0.6,0.4-1l3.7-8.9l3.1-6.9c0.7-1.4,1.3-2.7,2-4.1c0.4-0.9,0.9-1.8,1.3-2.6c0.7-1.4,1.4-2.7,2.1-4 c0.5-0.8,0.9-1.7,1.3-2.5c0.7-1.3,1.5-2.6,2.2-3.9c0.5-0.8,0.9-1.5,1.3-2.3c2.5-4,5-7.8,7.8-11.2c0.9-1.2,1.8-2.3,2.8-3.5 c0.4-0.5,0.8-1,1.3-1.5c0.4-0.4,0.8-0.9,1.2-1.3c1.1-1.1,2.1-2.2,3.2-3.2c3.1-3,6.4-5.8,10.2-8.6c0.6-0.5,1.2-0.9,1.9-1.4 c0.3-0.2,0.7-0.5,1-0.7l3.8-2.7c0.7-0.5,1.6-1.1,1.9-1.3l1.2-0.8l3.7-2.1l3.1-1.5c0.6-0.3,1.2-0.6,1.9-0.9c0.4-0.2,0.8-0.3,1.1-0.5 c0.4-0.2,0.8-0.4,1.2-0.5c0.7-0.3,1.3-0.6,2.1-0.9c8-3.3,17.4-6.6,28.8-10.2c17.4-5.4,36.6-10.5,62.3-16.5 c19.9-4.6,40.8-9.1,64-13.8c38.8-7.8,80-15.3,129.6-23.6c41.2-6.9,83.9-13.7,130.5-20.6c78.6-11.8,164.4-23.7,262.2-36.4 c79-10.3,162.5-20.6,262.9-32.4c84.2-9.9,172.8-20,263.3-29.8c192.4-20.8,364.8-38.2,527.3-53c53.3-4.9,94-8.4,131.9-11.6 c36.4-3,84.2-6.9,131.7-10.1c13.2-0.9,23.3-1.5,32.8-2c12.8-0.7,23.1-1.2,32.3-1.5c4.8-0.1,10.3-0.3,15.3-0.2l15.7,0.5 c11.3,0.4,20.8,1.2,29.8,2.5c9.5,1.4,19.2,3.3,28.6,5.8c1.4,0.4,2.9,0.8,4.3,1.2c0.9,0.3,1.8,0.6,2.8,0.8l3.4,1l10.4,3.6l6.9,2.7 c17.7,7.1,35.5,16.5,53,28v0c7.5,5,14.5,10.6,21,16.8c6.5,6.2,12.8,13.3,18.7,21c11,14.4,21.3,31.3,30.5,50.5 c8.2,17.1,15.8,36.3,22.5,57.1c6.1,18.9,11.4,38.7,16.3,60.6c8.6,39.1,14.8,80.3,18.8,125.9C2976.8,886.7,2978.5,930,2978.3,974.6z"/><path d="M1228.1,952.9c-4.9-38.4-8.5-46.9-43.9-46.9c-23.2,0-29.9,0-43.3,20.1c-18.9,28.6-78.6,250.5-89.6,250.5 c-11,0-41.4-82.9-61.6-142c-8.5-26.2-20.1-54.2-32.9-78.6c-11-21.9-15.8-30.5-45.7-30.5c-29.9,0-34.7,4.9-43.9,29.3 c-15.2,39.6-14,321.2-14,381.5c0,44.5,1.8,57.3,40.2,57.3c39.6,0,43.3-9.1,43.3-64.6c0-84.7-3-226.1,6.7-226.1 c12.8,0,39,104.2,76.8,158.5c9.8,14,24.4,14.6,34.7,14.6c8.5,0,27.4-1.2,36-28c21.3-70.7,63.4-190.8,70.7-190.8 c7.3,0,6.7,131.6,6.7,234.6c0,71.9,0.6,86.5,43.3,86.5c25,0,25-14.6,25-73.1c0-81.1-3-149.3-4.9-230.4 C1230.5,1034.5,1232.9,993.1,1228.1,952.9z"/><path d="M1437.4,946.5c26.4,0,67.1,3.9,94.2,3.9c28.4,0,38.1-5.2,38.1-25.8c0-35.5-4.5-49.7-38.1-49.7h-45.1 c-45.1,0-90.9,0.6-136.1,0.6c-33.5,0-32.9,25.2-34.2,63.8c-5.2,140-13.5,274.1-13.5,412.1c0,29,11,33.5,41.3,33.5 c62.6,0,125.8-3.2,188.3-3.2c25.2,0,32.9-5.8,32.9-30.3c0-21.9-6.4-25.8-29.7-25.8c-30.3,0-80,0-112.2,1.9 c-16.8,1.3-27.1-11.6-27.1-27.7v-31.6c0-38.7,1.3-77.4,1.9-116.1c3.2-1.9,9.7-2.6,18.1-2.6c22.6,0,58.7,4.5,81.9,4.5 c25.8,0,36.1-1.3,36.1-22.6c0-23.9-8.4-26.4-40.6-26.4c-31.6,0-63.2,1.3-94.8,4.5c0-32.2,0.6-145.1,12.9-159.3 C1414.2,947.1,1423.8,946.5,1437.4,946.5z"/><path d="M1788.8,816.5c-150.2,0-187.2,79.7-190.7,297.5c-3.6,218.5,23.5,283.3,179.4,283.3 c140.2,0,170.8-98.9,174.4-279.7C1954.6,937.5,1931.8,816.5,1788.8,816.5z M1885.6,1125.4c-2.8,161.6-24.2,217.8-98.2,217.8 c-74,0-96.8-49.1-93.9-226.3c2.8-176.5,20.6-220.6,95.4-220.6C1863.5,896.2,1888.4,964.5,1885.6,1125.4z"/><path d="M2419.4,786.7c-35.9,0-30.5,58-32.8,127.4c-3.8,125.1-4.6,353.3-18.3,353.3c-13.7,0-35.1-145-51.9-227.4 c-7.6-37.4-11.4-75.5-25.9-110.6c-9.2-22.9-25.2-42.7-51.9-42.7c-22.9,0-33.6,25.2-41.2,42.7c-13.7,32-20.6,66.4-29,100 c-16.8,65.6-27.5,197.6-48.1,197.6s-13-248-6.1-371.6c3.1-50.4,0-68.7-56.5-68.7c-41.2,0-51.1,12.2-51.1,53.4 c0,6.1,0.8,12.2,0.8,18.3l19.1,429.6c3.8,83.2,11.4,103.8,62.6,103.8c31.3,0,48.8-13.7,61-42c15.3-35.9,21.4-76.3,30.5-113.7 c19.1-80.1,48.8-204.5,55.7-204.5c6.9,0,29,125.9,46.5,207.6c7.6,35.1,11.4,72.5,28.2,104.5c18.3,35.9,28.2,43.5,67.1,43.5 c50.4,0,51.1-25.2,55.7-90.8l31.3-438c0-6.9,0-13.7-0.8-20.6C2461.4,795.9,2450.7,786.7,2419.4,786.7z"/><path d="M2576.1,1282.5c-48.4-2.8-59.9,10.5-62.8,60.5c-2.8,47.6,8.8,60.6,56.4,63.4c45.1,2.6,61-15.4,63.6-60.5 C2636.1,1297.5,2624.5,1285.3,2576.1,1282.5z"/><path d="M2611.8,741.2c-57.4-3.4-60.6,8.8-65.7,96.6c-5.9,101.7-6.2,218.6-12.1,320.4c-5.2,88.6,5.2,94.2,46.2,96.6 c41.8,2.4,45.4-2.3,51.5-106.5c6.2-105.8,22.4-228.4,28.6-335.1C2663.6,756.5,2649.6,743.4,2611.8,741.2z"/></g></svg>